<svg width="1381" height="342" viewBox="0 0 1381 342" fill="none" xmlns="http://www.w3.org/2000/svg">
<path d="M165.686 0C165.526 0 165.392 0.0754465 165.237 0.0906358C164.834 0.0769182 164.436 0.0210669 164.021 0.112189L57.7467 23.242C57.5934 23.2758 57.4798 23.3773 57.3328 23.4238C57.0099 23.5262 56.7189 23.6565 56.4288 23.8206C56.157 23.9735 55.9076 24.1312 55.6734 24.3297C55.4314 24.5335 55.229 24.7554 55.0306 25.0018C54.8332 25.2473 54.6603 25.4912 54.5128 25.77C54.3692 26.0409 54.2673 26.3172 54.1762 26.6151C54.0773 26.9355 54.0106 27.25 53.9793 27.5895C53.9651 27.7419 53.8906 27.8732 53.8906 28.029V126.142C48.163 120.632 40.4003 117.223 31.8444 117.223C14.2859 117.223 0 131.509 0 149.067C0 166.626 14.2859 180.912 31.8444 180.912C49.403 180.912 63.6889 166.626 63.6889 149.067V31.9762L160.787 10.8438V103.012C155.059 97.5023 147.297 94.093 138.741 94.093C121.182 94.093 106.896 108.379 106.896 125.937C106.896 143.496 121.182 157.782 138.741 157.782C156.299 157.782 170.585 143.496 170.585 125.937V4.89915C170.585 2.19335 168.394 0 165.686 0ZM31.8444 171.113C19.6878 171.113 9.79829 161.225 9.79829 149.067C9.79829 136.911 19.6878 127.021 31.8444 127.021C44.0017 127.021 53.8906 136.911 53.8906 149.067C53.8906 161.225 44.0017 171.113 31.8444 171.113ZM138.741 147.984C126.584 147.984 116.695 138.095 116.695 125.937C116.695 113.781 126.584 103.891 138.741 103.891C150.898 103.891 160.787 113.781 160.787 125.937C160.787 138.095 150.898 147.984 138.741 147.984Z" fill="#6BC5D2"/>
<path d="M137.349 207.123C128.862 198.877 119.432 191.43 109.328 184.986C107.82 184.031 105.902 183.964 104.338 184.821C102.768 185.682 101.792 187.328 101.792 189.117V287.23C96.0644 281.72 88.3022 278.311 79.7463 278.311C62.1878 278.311 47.9019 292.597 47.9019 310.156C47.9019 327.714 62.1878 342 79.7463 342C97.3048 342 111.591 327.714 111.591 310.156V198.341C118.312 203.159 124.657 208.455 130.527 214.153C135.603 219.079 141.225 225.038 144.42 231.879C151.071 246.129 143.177 269.35 139.383 280.512C138.507 283.072 139.88 285.856 142.44 286.727C145.028 287.597 147.789 286.229 148.655 283.665C155.066 264.819 160.63 243.438 153.3 227.734C149.43 219.454 143.067 212.668 137.349 207.123ZM79.7463 332.202C67.5891 332.202 57.7001 322.312 57.7001 310.156C57.7001 297.998 67.5891 288.109 79.7463 288.109C91.903 288.109 101.792 297.998 101.792 310.156C101.792 322.312 91.903 332.202 79.7463 332.202Z" fill="#6BC5D2"/>
<path d="M282.518 247.897C280.557 246.034 277.461 246.115 275.591 248.076C270.471 253.468 263.462 260.853 256.027 264.185C249.841 266.953 244.837 264.472 237.173 260.202C231.967 257.303 226.585 254.303 220.198 253.765C203.596 252.325 190.42 265.716 181.741 274.56C179.847 276.491 179.876 279.593 181.808 281.488C182.76 282.425 183.999 282.892 185.239 282.892C186.507 282.892 187.775 282.402 188.736 281.425C196.132 273.89 207.371 262.499 219.375 263.53C223.662 263.891 227.91 266.257 232.407 268.762C240.215 273.115 249.066 278.05 260.037 273.127C268.533 269.317 275.605 262.295 282.7 254.823C284.561 252.861 284.48 249.761 282.518 247.897Z" fill="#6BC5D2"/>
<path d="M223.656 209.089C241.215 209.089 255.501 194.803 255.501 177.245V56.206C255.501 53.5007 253.31 51.3069 250.602 51.3069C247.894 51.3069 245.703 53.5007 245.703 56.206V154.32C239.975 148.81 232.212 145.4 223.656 145.4C206.098 145.4 191.812 159.686 191.812 177.245C191.812 194.803 206.098 209.089 223.656 209.089ZM223.656 155.199C235.813 155.199 245.703 165.088 245.703 177.245C245.703 189.402 235.813 199.291 223.656 199.291C211.499 199.291 201.61 189.402 201.61 177.245C201.61 165.088 211.499 155.199 223.656 155.199Z" fill="#6BC5D2"/>
<path d="M445.219 100.796H478.698V247.265H445.219V181.772L423.876 233.245H413.205L391.862 181.772V247.265H358.384V100.796H391.862L418.436 165.033L445.219 100.796ZM566.37 154.152L590.432 100.796H623.911L583.109 191.397V247.265H549.63V191.397L508.828 100.796H542.516L566.37 154.152ZM728.95 100.796V213.786H782.935V247.265H695.472V100.796H728.95ZM870.607 154.152L894.669 100.796H928.148L887.346 191.397V247.265H853.867V191.397L813.065 100.796H846.753L870.607 154.152ZM1035.7 100.796C1050.14 100.796 1061.85 112.513 1061.85 126.951V181.981C1061.85 193.071 1054.95 202.487 1045.32 206.253L1061.85 247.265H1026.28L1010.38 208.136H991.757V247.265H958.279V100.796H1035.7ZM1021.47 174.449C1025.24 174.449 1028.37 171.519 1028.37 167.753V141.179C1028.37 137.413 1025.24 134.484 1021.47 134.484H991.757V174.449H1021.47ZM1124.83 100.796V247.265H1091.36V100.796H1124.83ZM1225.06 197.047H1258.54V221.109C1258.54 235.547 1246.82 247.265 1232.38 247.265H1181.12C1166.68 247.265 1154.97 235.547 1154.97 221.109V126.951C1154.97 112.513 1166.68 100.796 1181.12 100.796H1232.38C1246.82 100.796 1258.54 112.513 1258.54 126.951V151.014H1225.06V134.484H1188.44V213.786H1225.06V197.047ZM1354.79 157.291C1369.23 157.291 1380.95 169.008 1380.95 183.446V221.319C1380.95 235.756 1369.23 247.265 1354.79 247.265H1288.67V213.786H1347.26V190.979H1314.62C1300.18 190.979 1288.67 179.261 1288.67 164.824V126.951C1288.67 112.513 1300.39 100.796 1314.62 100.796H1380.95V134.484H1322.15V157.291H1354.79Z" fill="white"/>
</svg>
